<?xml version="1.0" encoding="UTF-8"?>
<svg xmlns="http://www.w3.org/2000/svg" version="1.1" viewBox="0 0 1000 1000">
  <rect fill="#00776a" x="-8.2" y="-7.4" width="1015.9" height="1015.9"/>
  <g>
    <rect fill="#fff" x="405.9" y="255.8" width="73.9" height="489.5"/>
    <rect fill="#fff" x="606" y="255.8" width="73.9" height="495.6"/>
    <rect fill="#f15f22" x="801.5" y="391.3" width="73.9" height="360.2"/>
    <path fill="#fff" d="M284.3,402.1c-93.9,0-170.9,77-170.9,170.9s77,170.9,170.9,170.9,170.9-77,170.9-170.9-77-170.9-170.9-170.9ZM302.7,677.6c-57,0-104.7-46.2-104.7-104.7s46.2-104.7,104.7-104.7,104.7,46.2,104.7,104.7-46.2,104.7-104.7,104.7Z"/>
    <rect fill="#fff" x="550.5" y="391.3" width="183.2" height="86.2"/>
    <circle fill="#f15f22" cx="839.9" cy="311.2" r="55.4"/>
  </g>
</svg>